<svg id="svg" version="1.1" xmlns="http://www.w3.org/2000/svg" xmlns:xlink="http://www.w3.org/1999/xlink" width="400"
     height="400" viewBox="0, 0, 400,400">
    <g xmlns="http://www.w3.org/2000/svg" id="svgg">
        <path id="path1"
              d="M32.400 46.013 C 16.046 47.947,3.654 60.418,0.646 77.970 C -0.340 83.723,-0.338 234.689,0.647 240.428 C 2.993 254.083,11.387 264.974,23.298 269.818 C 29.229 272.230,30.614 272.385,46.300 272.393 L 60.400 272.400 60.400 243.976 C 60.400 221.340,60.298 215.615,59.900 215.860 C 59.625 216.029,54.540 219.785,48.600 224.206 C 28.914 238.860,26.731 240.444,26.389 240.321 C 26.203 240.255,33.762 232.190,43.187 222.400 L 60.325 204.600 60.499 178.000 C 60.688 149.154,60.665 149.474,63.047 142.210 C 64.555 137.610,65.509 135.415,67.532 131.892 C 68.514 130.183,69.246 128.730,69.159 128.665 C 69.071 128.599,65.049 125.498,60.219 121.773 C 55.390 118.048,50.953 114.640,50.361 114.200 C 49.768 113.760,45.456 110.430,40.779 106.800 C 32.309 100.226,31.141 99.321,25.776 95.180 C 24.224 93.981,19.932 90.666,16.240 87.812 C 12.547 84.959,9.702 82.566,9.917 82.494 C 10.131 82.423,16.673 85.903,24.454 90.229 C 32.234 94.554,43.550 100.838,49.600 104.193 C 55.650 107.548,64.310 112.360,68.844 114.886 L 77.089 119.480 80.244 117.111 C 86.466 112.440,92.338 109.568,100.253 107.323 L 104.200 106.203 184.000 106.001 L 263.800 105.800 266.800 104.159 C 268.450 103.257,274.480 99.945,280.200 96.800 C 291.478 90.599,296.193 88.010,302.447 84.582 C 304.672 83.362,306.661 82.420,306.866 82.489 C 307.265 82.622,307.120 82.741,290.010 96.370 C 282.440 102.400,278.922 105.437,279.277 105.635 C 279.568 105.798,288.354 105.901,298.803 105.865 L 317.800 105.800 317.768 91.600 C 317.736 77.671,317.716 77.327,316.710 73.577 C 312.700 58.625,300.493 47.804,285.610 46.009 C 281.597 45.525,36.494 45.528,32.400 46.013 M105.000 122.263 C 90.832 125.286,80.162 136.375,76.774 151.600 C 75.734 156.275,75.575 312.524,76.606 317.400 C 79.849 332.744,89.561 343.325,104.027 347.278 L 107.400 348.200 235.200 348.200 L 363.000 348.200 366.462 347.113 C 379.719 342.949,389.032 333.358,392.528 320.266 L 393.400 317.000 393.400 235.000 C 393.400 155.639,393.375 152.903,392.637 150.000 C 389.008 135.733,378.142 125.093,364.278 122.229 C 359.767 121.297,109.373 121.330,105.000 122.263 M94.800 162.992 C 96.450 163.920,99.690 165.724,102.000 167.000 C 104.310 168.276,107.550 170.076,109.200 171.000 C 110.850 171.924,114.090 173.719,116.400 174.990 C 118.710 176.261,121.950 178.059,123.600 178.986 C 125.250 179.913,128.220 181.571,130.200 182.671 C 132.180 183.771,135.600 185.672,137.800 186.896 C 143.531 190.084,159.439 198.902,161.800 200.200 C 162.900 200.804,165.330 202.161,167.200 203.215 C 173.022 206.496,203.263 223.258,206.000 224.722 C 207.430 225.486,209.590 226.691,210.800 227.400 C 212.010 228.108,216.870 230.812,221.600 233.408 C 226.330 236.005,231.254 238.736,232.543 239.477 L 234.886 240.825 237.943 239.070 C 239.624 238.104,243.070 236.183,245.600 234.800 C 249.956 232.419,252.255 231.138,259.500 227.052 C 261.205 226.090,266.290 223.274,270.800 220.795 C 278.149 216.754,284.105 213.445,292.600 208.683 C 294.140 207.819,297.110 206.168,299.200 205.013 C 301.290 203.857,306.510 200.965,310.800 198.585 C 319.401 193.814,322.819 191.920,328.200 188.942 C 330.180 187.846,334.230 185.592,337.200 183.932 C 362.008 170.071,384.097 157.963,384.266 158.133 C 384.453 158.319,379.099 162.659,363.442 175.014 C 360.385 177.426,356.065 180.841,353.842 182.602 C 319.309 209.957,315.802 212.735,305.400 220.983 C 301.000 224.472,296.343 228.153,295.050 229.163 C 289.131 233.790,289.386 233.195,292.100 236.047 C 293.255 237.261,297.080 241.300,300.600 245.021 C 304.120 248.743,310.684 255.661,315.188 260.394 C 319.691 265.127,326.441 272.240,330.187 276.200 C 333.933 280.160,338.805 285.290,341.013 287.600 C 343.222 289.910,346.477 293.330,348.247 295.200 C 350.017 297.070,355.201 302.530,359.766 307.333 C 366.679 314.607,369.584 318.078,367.110 316.108 C 366.829 315.885,354.000 306.287,338.600 294.780 C 323.200 283.273,302.500 267.801,292.600 260.399 C 282.700 252.997,274.145 246.644,273.589 246.282 C 272.595 245.636,272.513 245.670,268.711 248.312 C 266.585 249.791,262.270 252.764,259.122 254.920 C 255.975 257.076,249.360 261.621,244.423 265.020 C 234.080 272.140,235.069 271.849,230.973 268.968 C 216.071 258.487,197.007 245.671,196.646 245.890 C 196.400 246.038,187.650 252.546,177.200 260.353 C 154.167 277.560,123.026 300.836,112.400 308.785 C 102.636 316.090,102.000 316.537,102.000 316.091 C 102.000 315.754,106.845 310.535,116.568 300.397 C 118.786 298.085,123.390 293.226,126.800 289.600 C 132.888 283.125,138.377 277.344,145.223 270.200 C 147.120 268.220,152.247 262.820,156.616 258.200 C 160.986 253.580,167.561 246.650,171.227 242.800 C 174.893 238.950,178.351 235.253,178.911 234.584 L 179.929 233.369 168.108 223.984 C 152.438 211.545,142.463 203.638,131.800 195.202 C 126.960 191.374,120.930 186.602,118.400 184.600 C 106.837 175.446,101.535 171.261,98.200 168.652 C 96.220 167.104,93.957 165.289,93.170 164.619 C 92.384 163.948,90.359 162.334,88.670 161.032 C 83.307 156.895,84.819 157.378,94.800 162.992 "
              stroke="none" fill="#FF6C37" fill-rule="evenodd"/>
    </g>
</svg>
