<svg xmlns="http://www.w3.org/2000/svg" viewBox="0 0 797.4 610.4" height="610" width="797">
    <style>
        .a{fill:#242b31;}
        .b{fill:#e5e1ff;}
        .c{fill:#fff;}
        .d{fill:#ffd200;}
        .e{fill:#a36000;}
        .f{fill:#ffea88;}
        .g{fill:#313151;}
        .h{fill:#f9a970;}
        .i{fill:#f57c59;}
        .j{fill:#FF6C37;}
        .k{fill:#d93900;}
        .l{fill:#26B071;}
        .m{fill:#189b5f;}
        .n{fill:#ffc1aa;}
    </style>
    <defs>
        <clipPath clipPathUnits="userSpaceOnUse">
            <path d="M0 0V3150H3150V0Z"/>
        </clipPath>
        <pattern height="315" width="315" patternUnits="userSpaceOnUse" patternTransform="matrix(10,0,0,10,-1161,38)">
            <g clip-path="url(#clipPath130)">
                <path d="M315 0 0 0l0 0 315 0 0 0" class="a"/>
            </g>
        </pattern>
        <clipPath clipPathUnits="userSpaceOnUse">
            <path d="M0 0V3150H3150V0Z"/>
        </clipPath>
        <pattern height="315" width="315" patternUnits="userSpaceOnUse" patternTransform="matrix(10,0,0,10,-1161,38)">
            <g clip-path="url(#clipPath146)">
                <path d="M315 0 0 0l0 0 315 0 0 0" class="a"/>
            </g>
        </pattern>
        <clipPath clipPathUnits="userSpaceOnUse">
            <path d="M0 0V3150H3150V0Z"/>
        </clipPath>
        <pattern height="315" width="315" patternUnits="userSpaceOnUse" patternTransform="matrix(10,0,0,10,-1161,38)">
            <g clip-path="url(#clipPath162)">
                <path d="M315 0 0 0l0 0 315 0 0 0" class="a"/>
            </g>
        </pattern>
        <clipPath clipPathUnits="userSpaceOnUse">
            <path d="M0 0V3150H3150V0Z"/>
        </clipPath>
        <pattern height="315" width="315" patternUnits="userSpaceOnUse" patternTransform="matrix(10,0,0,10,-1161,38)">
            <g clip-path="url(#clipPath178)">
                <path d="M315 0 0 0l0 0 315 0 0 0" class="a"/>
            </g>
        </pattern>
        <clipPath clipPathUnits="userSpaceOnUse">
            <path d="M0 0V3150H3150V0Z"/>
        </clipPath>
        <pattern height="315" width="315" patternUnits="userSpaceOnUse" patternTransform="matrix(10,0,0,10,-1161,38)">
            <g clip-path="url(#clipPath194)">
                <path d="M315 0 0 0l0 0 315 0 0 0" class="a"/>
            </g>
        </pattern>
        <clipPath clipPathUnits="userSpaceOnUse">
            <path d="M0 0V3150H3150V0Z"/>
        </clipPath>
        <pattern height="315" width="315" patternUnits="userSpaceOnUse" patternTransform="matrix(10,0,0,10,-1161,38)">
            <g clip-path="url(#clipPath210)">
                <path d="M315 0 0 0l0 0 315 0 0 0" class="a"/>
            </g>
        </pattern>
        <clipPath clipPathUnits="userSpaceOnUse">
            <path d="M0 0V3150H3150V0Z"/>
        </clipPath>
        <pattern height="315" width="315" patternUnits="userSpaceOnUse" patternTransform="matrix(10,0,0,10,-1161,38)">
            <g clip-path="url(#clipPath226)">
                <path d="M315 0 0 0l0 0 315 0 0 0" class="a"/>
            </g>
        </pattern>
        <clipPath clipPathUnits="userSpaceOnUse">
            <path d="M0 0V3150H3150V0Z"/>
        </clipPath>
        <pattern height="315" width="315" patternUnits="userSpaceOnUse" patternTransform="matrix(10,0,0,10,-1161,38)">
            <g clip-path="url(#clipPath242)">
                <path d="M315 0 0 0l0 0 315 0 0 0" class="a"/>
            </g>
        </pattern>
        <clipPath clipPathUnits="userSpaceOnUse">
            <path d="M0 0V3150H3150V0Z"/>
        </clipPath>
        <pattern height="315" width="315" patternUnits="userSpaceOnUse" patternTransform="matrix(10,0,0,10,-1161,38)">
            <g clip-path="url(#clipPath258)">
                <path d="M315 0 0 0l0 0 315 0 0 0" class="a"/>
            </g>
        </pattern>
        <clipPath clipPathUnits="userSpaceOnUse">
            <path d="M0 0V3150H3150V0Z"/>
        </clipPath>
        <pattern height="315" width="315" patternUnits="userSpaceOnUse" patternTransform="matrix(10,0,0,10,-1161,38)">
            <g clip-path="url(#clipPath274)">
                <path d="M315 0 0 0l0 0 315 0 0 0" class="a"/>
            </g>
        </pattern>
        <clipPath clipPathUnits="userSpaceOnUse">
            <path d="M0 0V3150H3150V0Z"/>
        </clipPath>
        <pattern height="315" width="315" patternUnits="userSpaceOnUse" patternTransform="matrix(10,0,0,10,-1161,38)">
            <g clip-path="url(#clipPath290)">
                <path d="M315 0 0 0l0 0 315 0 0 0" class="a"/>
            </g>
        </pattern>
        <clipPath clipPathUnits="userSpaceOnUse">
            <path d="M0 0V3150H3150V0Z"/>
        </clipPath>
        <pattern height="315" width="315" patternUnits="userSpaceOnUse" patternTransform="matrix(10,0,0,10,-1161,38)">
            <g clip-path="url(#clipPath306)">
                <path d="M315 0 0 0l0 0 315 0 0 0" class="a"/>
            </g>
        </pattern>
        <clipPath clipPathUnits="userSpaceOnUse">
            <path d="M0 0V3150H3150V0Z"/>
        </clipPath>
        <pattern height="315" width="315" patternUnits="userSpaceOnUse" patternTransform="matrix(10,0,0,10,-1161,38)">
            <g clip-path="url(#clipPath322)">
                <path d="M315 0 0 0l0 0 315 0 0 0" class="a"/>
            </g>
        </pattern>
        <clipPath clipPathUnits="userSpaceOnUse">
            <path d="M0 0V3150H3150V0Z"/>
        </clipPath>
        <pattern height="315" width="315" patternUnits="userSpaceOnUse" patternTransform="matrix(10,0,0,10,-1161,38)">
            <g clip-path="url(#clipPath338)">
                <path d="M315 0 0 0l0 0 315 0 0 0" class="a"/>
            </g>
        </pattern>
        <clipPath clipPathUnits="userSpaceOnUse">
            <path d="M0 0V3150H3150V0Z"/>
        </clipPath>
        <pattern height="315" width="315" patternUnits="userSpaceOnUse" patternTransform="matrix(10,0,0,10,-1161,38)">
            <g clip-path="url(#clipPath354)">
                <path d="M315 0 0 0l0 0 315 0 0 0" class="a"/>
            </g>
        </pattern>
        <clipPath clipPathUnits="userSpaceOnUse">
            <path d="M0 0V3150H3150V0Z"/>
        </clipPath>
        <pattern height="315" width="315" patternUnits="userSpaceOnUse" patternTransform="matrix(10,0,0,10,-1161,38)">
            <g clip-path="url(#clipPath370)">
                <path d="M315 0 0 0l0 0 315 0 0 0" class="a"/>
            </g>
        </pattern>
        <clipPath clipPathUnits="userSpaceOnUse">
            <path d="M0 0V3150H3150V0Z"/>
        </clipPath>
        <pattern height="315" width="315" patternUnits="userSpaceOnUse" patternTransform="matrix(10,0,0,10,-1161,38)">
            <g clip-path="url(#clipPath386)">
                <path d="M315 0 0 0l0 0 315 0 0 0" class="a"/>
            </g>
        </pattern>
        <clipPath clipPathUnits="userSpaceOnUse">
            <path d="M0 0V3150H3150V0Z"/>
        </clipPath>
        <pattern height="315" width="315" patternUnits="userSpaceOnUse" patternTransform="matrix(10,0,0,10,-1161,38)">
            <g clip-path="url(#clipPath402)">
                <path d="M315 0 0 0l0 0 315 0 0 0" class="a"/>
            </g>
        </pattern>
        <clipPath clipPathUnits="userSpaceOnUse">
            <path d="M0 0V3150H3150V0Z"/>
        </clipPath>
        <pattern height="315" width="315" patternUnits="userSpaceOnUse" patternTransform="matrix(10,0,0,10,-1161,38)">
            <g clip-path="url(#clipPath418)">
                <path d="M315 0 0 0l0 0 315 0 0 0" class="a"/>
            </g>
        </pattern>
        <clipPath clipPathUnits="userSpaceOnUse">
            <path d="M0 0V3150H3150V0Z"/>
        </clipPath>
        <pattern height="315" width="315" patternUnits="userSpaceOnUse" patternTransform="matrix(10,0,0,10,-1161,38)">
            <g clip-path="url(#clipPath434)">
                <path d="M315 0 0 0l0 0 315 0 0 0" class="a"/>
            </g>
        </pattern>
        <clipPath clipPathUnits="userSpaceOnUse">
            <path d="M0 0V3150H3150V0Z"/>
        </clipPath>
        <pattern height="315" width="315" patternUnits="userSpaceOnUse" patternTransform="matrix(10,0,0,10,-1161,38)">
            <g clip-path="url(#clipPath450)">
                <path d="M315 0 0 0l0 0 315 0 0 0" class="a"/>
            </g>
        </pattern>
        <clipPath clipPathUnits="userSpaceOnUse">
            <path d="M0 0V3150H3150V0Z"/>
        </clipPath>
        <pattern height="315" width="315" patternUnits="userSpaceOnUse" patternTransform="matrix(10,0,0,10,-1161,38)">
            <g clip-path="url(#clipPath466)">
                <path d="M315 0 0 0l0 0 315 0 0 0" class="a"/>
            </g>
        </pattern>
    </defs>
    <g transform="matrix(1.3333333 0 0 -1.3333333 0 610.37333)scale(0.1)">
        <path d="m5685.9 1627.8c-129.6-221.6-304.7-412.7-513.2-573.4-78.6-60.8-161.9-117.1-249.4-169.1-8.6-5.2-17.3-10.3-26-15.3-139.7-81.1-289.5-151.4-446.9-211-16.4-6.3-33-12.4-49.6-18.4-12.7-4.6-25.4-9.1-38.2-13.5-1.1-0.4-2.3-0.8-3.5-1.2-54.2-18.8-109.2-36.4-164.9-52.7-18.2-5.4-36.4-10.6-54.8-15.6-33.3-9.3-66.9-18.1-100.7-26.4-17.9-4.5-35.9-8.8-53.9-13-133.7-31.2-270.5-55.7-409.3-73.6-1502.8-194-3225.8 386.3-3547.4 1698.2-95.8 390.6 65.9 629.5 291.9 780.2 112.4 75 240.9 128.2 361.4 167.3 5.2 1.8 10.5 3.5 15.7 5.1 0.2 0.1 0.4 0.1 0.6 0.2 103.3 32.7 199.9 55.3 274.6 72.7 0 0 3.8 8.8 11.7 24.9 90.1 184 709.1 1328.1 2198.5 1383.4 936.5 34.8 989.2-648 1357.6-950h0.1c97.7-80.1 217.6-133.4 382.1-139.4h0.1c6.7-0.3 13.6-0.4 20.4-0.5h0.1c9.1-0.1 18.3-0.1 27.7 0.1 4.6 0 9.4 0.2 14.1 0.4 1.6 0 3.1 0 4.7 0.1 0.1-0.1 0.2-0.1 0.3 0 6.7 0.2 13.4 0.6 20.3 1 0.1-0.1 0.2 0 0.2 0 4.5 0.2 9.1 0.6 13.6 0.9 12.1 0.9 24.5 2 37.1 3.4h0.1c1.1 0 2.2 0.2 3.3 0.3 9.9 1.1 19.6 2 29.3 2.9h0.1c19.7 1.6 39 2.6 58.1 3.2h0.1c108.8 3.1 208.5-11.2 298.1-40.8 567.7-186.9 730.6-984.4 235.9-1830.4" class="b"/>
        <path d="m4194.2 573.1c-18.2-5.4-36.4-10.6-54.8-15.6-33.3-9.3-66.9-18.1-100.7-26.4-17.9-4.5-35.9-8.8-53.9-13-133.7-31.2-270.5-55.7-409.3-73.6-148.7 49.4-287.9 140.4-366.5 295.5 0 0 69.6 38.9 180.2 60.7l0.3-0.5c8.8-16.6 24.5-24.3 40.1-24.3 20.2 0 40.3 13 45 36.7 75.4 19.8 155.8 18.3 237 2 170.4-34.2 344.2-134.1 482.6-241.5" class="m"/>
        <path d="m3448.3 695.8c-27.4 6.3-51.3 11.8-56.9 13.6-5 2.6-11.3 2.3-16.1-1.4-6.5-5-7.8-14.5-2.7-21 4.2-5.5 4.2-5.5 69-20.4 106.5-24.6 335.6-77.4 543.2-148.4 18 4.2 36 8.5 53.9 13-220.2 79.3-475.7 138.2-590.4 164.6" class="c"/>
        <path d="m4400.8 640.6c-12.7-4.6-25.4-9.1-38.2-13.5 0.8-0.4 1.5-0.9 2.3-1.3-2 0-3.9 0-5.8 0.1-0.1 0-0.3-0.1-0.5-0.2-14.8-5.1-29.7-10.1-44.6-15.1-39.5-13.1-79.5-25.6-119.8-37.4-18.2-5.4-36.4-10.6-54.8-15.6-142.6 51.6-302.7 131.8-427.8 257.1-124.9 124.9-215 295-218 526.4 0 0 109.2 5.8 258.4-34.2l1.5-51.7c1.2-41.8 54.4-58.9 79.8-25.7l30.8 40.5c154.7-60.9 330.5-173.2 469.7-380 40.8-60.5 78.4-129 111.5-206.8l5.1-24.2c-16.4-6.3-33-12.4-49.6-18.4" class="l"/>
        <path d="m4318.1 686.9c-358 210.2-681.6 524.9-698.4 546.1-3 5.7-9.6 9-16.2 7.7-8.2-1.6-13.4-9.6-11.8-17.7 4.3-21.1 359.4-357.8 723.8-569.3 15.7-9.1 31.4-18 47.1-26.6 12.8 4.4 25.5 8.9 38.2 13.5-27.7 14.7-55.3 30.2-82.7 46.3" class="c"/>
        <path d="m5080.3 2719.7c-35.1 0-63.7 28.6-63.7 63.7 0 35.1 28.6 63.7 63.7 63.7 35.1 0 63.7-28.6 63.7-63.7 0-35.1-28.6-63.7-63.7-63.7zm0 157.4c-51.6 0-93.7-42-93.7-93.7 0-51.6 42.1-93.7 93.7-93.7 51.7 0 93.7 42.1 93.7 93.7 0 51.7-42 93.7-93.7 93.7" class="c"/>
        <path d="m5512.8 2352.4c-8.3 0-15 6.7-15 15v122.5c0 8.3 6.7 15 15 15 8.3 0 15-6.7 15-15v-122.5c0-8.3-6.7-15-15-15" class="c"/>
        <path d="m5574.1 2413.7h-122.5c-8.3 0-15 6.7-15 15 0 8.3 6.7 15 15 15h122.5c8.3 0 15-6.7 15-15 0-8.3-6.7-15-15-15" class="c"/>
        <path d="m1022.9 1997.7c-4-16.5-14.1-30.5-28.6-39.4-30-18.4-69.3-8.9-87.6 21-18.3 30-8.9 69.2 21 87.6 30 18.3 69.2 8.9 87.6-21.1 8.9-14.5 11.6-31.5 7.6-48.1zm18 63.8c-27 44.1-84.8 57.9-128.9 31-28.8-17.7-44.7-48.5-44.7-80.1 0-16.7 4.5-33.5 13.8-48.8 13.1-21.3 33.7-36.3 58-42.1 7.3-1.8 14.7-2.6 22.1-2.6 17 0 33.8 4.7 48.7 13.8 21.4 13.1 36.3 33.7 42.2 58 5.8 24.3 1.8 49.5-11.2 70.8" class="c"/>
        <path d="m439 2021.8c-5 0-10 2.6-12.8 7.2l-64 104.5c-4.3 7.1-2.1 16.3 4.9 20.6 7.1 4.3 16.3 2.1 20.6-4.9l64-104.5c4.3-7.1 2.1-16.3-5-20.6-2.4-1.5-5.2-2.2-7.8-2.2" class="c"/>
        <path d="m354.7 2042c-5 0-10 2.5-12.8 7.2-4.3 7.1-2.1 16.3 5 20.6l104.5 64c7.1 4.3 16.3 2.1 20.6-4.9 4.3-7.1 2.1-16.3-4.9-20.6l-104.5-64c-2.4-1.5-5.2-2.2-7.8-2.2" class="c"/>
        <path d="m1135.6 2827.3c0 0 258.6 66.8 294.9 51.2 36.3-15.6 94-257.5 76.5-263.4-17.5-5.9-100.9 77.3-100.9 77.3 0 0-20.5-41.2-52.9-27.5-32.3 13.7-67.4 70.9-67.4 70.9 0 0-9.1-28-42.4-16.2-33.3 11.8-77.2 75.9-77.2 75.9l-30.6 31.9" class="c"/>
        <path d="m487.8 3173.9c0 0-135.6 230.1-172.3 244.7-36.7 14.6-248.6-115.6-240.4-132.2 8.2-16.6 126-16.7 126-16.7 0 0-14.6-43.6 18-56.8 32.6-13.2 97.8 2.5 97.8 2.5 0 0-13.4-26.3 18.5-41.4 31.9-15.2 108.3-0.9 108.3-0.9l44.2 0.9" class="b"/>
        <path d="m1277.2 3017.4-218.7-438.1c-6.5-13-22.3-18.3-35.3-11.8l-692.4 345.6c-13 6.5-18.3 22.3-11.8 35.3l218.7 438.1c1.5 2.9 3.5 5.5 5.8 7.6 7.7 7.2 19.4 9.2 29.5 4.2l692.4-345.6c10.1-5 15.5-15.6 14.4-26.1-0.3-3.1-1.1-6.3-2.6-9.2" class="d"/>
        <path d="m355 2941.8 409.3 38c20.7 1.9 40.7-8 51.7-25.6L1036.9 2601.4 833.9 2974.5c-11 21.7-34.8 33.6-58.7 29.3l-420.2-62.1" class="e"/>
        <path d="m1278.5 3024.1-501-82.4-235.3 449.9c8.5 8.7 20.7 11.8 30.8 6.8l692.4-345.6c10.1-5 14.9-16.7 13.1-28.7" class="f"/>
        <path d="M556.8 3363.6 761.5 2974.1c10.1-19.3 30-29.4 51.5-26l431.2 68.5-438.7-99c-25-6.4-48.8 5.5-58.7 29.3l-190 416.7" class="e"/>
        <path d="m5354.7 3635.8c0 0 144.5 224.6 181.8 237.8 37.3 13.1 243.9-125.2 235-141.5-8.8-16.3-126.5-11.7-126.5-11.7 0 0 12.9-44.2-20.2-56.1-33-11.9-97.7 6.3-97.7 6.3 0 0 12.4-26.8-20.1-40.7-32.5-13.9-108.2 3.3-108.2 3.3l-44.1 2.6" class="b"/>
        <path d="m4643.8 3450.5c0 0-255.8 76.9-292.6 62.7-36.8-14.2-104-253.6-86.8-260.3 17.3-6.6 103.8 73.3 103.8 73.3 0 0 18.9-41.9 51.8-29.5 32.9 12.4 70.2 68.2 70.2 68.2 0 0 8-28.4 41.7-17.9 33.7 10.5 80.1 72.8 80.1 72.8l31.8 30.7" class="c"/>
        <path d="m5329.6 3871.5 136.9-470.1c4.1-13.9-3.9-28.6-17.9-32.7l-743-216.3c-13.9-4.1-28.5 4-32.6 18l-136.9 470.1c-0.9 3.2-1.2 6.4-0.9 9.5 0.8 10.5 8 20 18.8 23.1l743 216.3c10.8 3.1 22-1 28.3-9.4 1.9-2.5 3.4-5.4 4.3-8.5" class="d"/>
        <path d="m4703.9 3189.9 274.7 305.8c13.9 15.5 35.3 21.8 55.3 16.3l401.7-109.1-402.4 136.2c-22.7 8.4-48.3 1-63-18.3l-266.4-330.9" class="e"/>
        <path d="m5326.1 3877.2-311.9-400.6-478.2 170.5c0.3 12.1 7.2 22.7 18 25.9l743 216.3c10.8 3.1 22.3-2.1 29.1-12.1" class="f"/>
        <path d="m4565.6 3636.6 414.8-147c20.5-7.4 42-1.2 55.5 15.9l270.1 343-254.9-370.5c-14-21.7-39.6-29.1-63-18.3l-422.4 176.9" class="e"/>
        <path d="m1885.5 1046.6c0 0 188.3 58.3 215.6 48 27.3-10.3 78.3-186.6 65.6-191.6-12.7-5-77.1 53.4-77.1 53.4 0 0-13.7-31.1-38-22.1-24.3 9-52.2 49.9-52.2 49.9 0 0-5.7-21-30.7-13.4-24.9 7.6-59.6 53.3-59.6 53.3l-23.7 22.4" class="c"/>
        <path d="m1395.8 1279.5c0 0-108 164.9-135.6 174.4-27.6 9.5-179.2-93.9-172.6-105.9 6.6-11.9 93.5-7.9 93.5-7.9 0 0-9.2-32.7 15.2-41.3 24.5-8.6 72.1 5.2 72.1 5.2 0 0-9-19.8 15.1-29.9 24-10.1 79.8 3.1 79.8 3.1l32.6 2.2" class="c"/>
        <path d="m1983.2 1191.7-145.9-330.6c-4.3-9.8-15.8-14.3-25.6-9.9l-522.5 230.6c-9.8 4.3-14.2 15.8-9.9 25.6l145.9 330.6c1 2.2 2.4 4.2 4 5.8 5.5 5.6 14 7.5 21.6 4.1l522.5-230.6c7.6-3.3 12-11 11.5-18.8-0.1-2.3-0.6-4.7-1.6-6.9" class="d"/>
        <path d="m1306 1103.7 300.5 42.3c15.2 2.1 30.3-4.5 39-17l175.2-252.4-162.7 268c-8.8 15.6-26.8 23.5-44.3 19.6l-307.6-60.4" class="e"/>
        <path d="m1984 1196.7-366.5-78.2-189.2 323.4c6 6.7 14.9 9.4 22.5 6.1l522.5-230.6c7.6-3.3 11.6-11.8 10.7-20.7" class="f"/>
        <path d="m1440 1421.8 164.5-280c8.1-13.9 23.2-20.6 38.9-17.3l315.5 65.6-319.9-88.3c-18.2-5.6-36.2 2.3-44.3 19.6l-154.7 300.6" class="e"/>
        <path d="m1682.7 3293.3 1159.2 860c47.4 35.2 112.3 34.9 159.4-0.6l1141.6-859.4h-2460.1" class="d"/>
        <path d="M4100.4 1639.9H1725c-44.6 0-80.8 36.2-80.8 80.8v1503.1c0 44.6 36.2 80.8 80.8 80.8h2375.5c44.6 0 80.8-36.2 80.8-80.8V1720.7c0-44.6-36.2-80.8-80.8-80.8" class="d"/>
        <path d="m4066.7 3194.5-266.6-206.4-3.5-2.7-216.3-167.4-156.2-120.9-325.3-251.8-62.6-48.5-34.8 21.2c-54.4 33.3-122.9 33-177.1-0.6l-34.6-21.5-54.8 42.2-336.5 259-157.1 120.9-217.4 167.4-39.8 30.6-231.9 178.5h2314.5" class="c"/>
        <path d="m4091.8 1751.9-1055.6 644.9-34.8 21.2c-54.4 33.3-122.9 33-177.1-0.6l-34.6-21.5-1037.5-644 982.7 686.2 86.4 60.3c59.7 44.5 141.6 44.5 201.4 0l76.1-53.1 993-693.4" class="e"/>
        <path d="M4066.7 3948.1H1752.2v-753.7h2314.5v753.7" class="c"/>
        <path d="M3800.2 3561.8H1984.1v120.9h1816.1v-120.9" class="n"/>
        <path d="M3800.2 3273.6H1984.1v120.9h1816.1v-120.9" class="n"/>
        <path d="m3800.1 3106.2v-118.1l-3.5-2.7h-1772.7l-39.8 30.6v90.2h1816" class="n"/>
        <path d="m3580.3 2818-156.2-120.9h-1025.7l-157.1 120.9h1339" class="n"/>
        <path d="m4457.5 2029.1c85.5 29.4 39.9 176.7 161.6 267 128.4 95.2 172.9-32.2 172.9-32.2 0 0 108.3 76.5 220.6-23 69.4-61.4 154.1-212.1 44.1-419.9-95.4-180.2 140.7-255.1-20.6-359.9-138-89.6-523.8 67.1-523.8 67.1 0 0-445.5 366.7-54.7 501" class="g"/>
        <path d="m4766.9 1811.4-26.9-130.8c-60.5-40-129.8-85.7-207-71.4l46.1 224.3c5.6 4.5 11.1 8.9 16.9 13l170.9-35.1" class="i"/>
        <path d="m4668.3 2224.1c0 0-226.5-187-206-444.3 1.4-17.5 11.7-33.1 27.3-41.1 56.5-28.9 197.4-91.3 260.3-31.3 79.7 76 240.5 276 177.1 366.5-63.4 90.5-258.8 150.2-258.8 150.2" class="h"/>
        <path d="m4798.5 1877.3c0 0 138.3 24 163.8-66.3 25.5-90.2-178-117.9-181.9-36.4-3.9 81.6 18.1 102.6 18.1 102.6" class="h"/>
        <path d="m4553.8 2094.4c0 0 51.9 88.4 78 46.9 26.2-41.5 36.3-105 167.9-87.6 100 13.2 28.7-207.5 28.7-207.5 0 0 62 40.3 110.9 3 0 0 81.8 233.3 3.9 288.8-77.9 55.5-274 139.7-312.2 102.3-38.2-37.4-77.2-145.9-77.2-145.9" class="g"/>
        <path d="m4596.3 2006c-7.8-11.9-18.7-18.6-24.4-14.9-5.6 3.7-3.9 16.4 3.9 28.3 7.8 11.9 18.7 18.6 24.4 14.9 5.6-3.7 3.9-16.4-3.9-28.3" class="g"/>
        <path d="m4722.8 1921.6c-7.8-11.9-18.7-18.6-24.4-14.9-5.6 3.7-3.9 16.4 3.9 28.3 7.8 11.9 18.7 18.6 24.4 14.9 5.6-3.7 3.9-16.4-3.9-28.3" class="g"/>
        <path d="m4549.7 1880c3.7-1.3 122.6-47.6 122.6-47.6 0 0-125-129.2-118.9 46.4l-3.7 1.3" class="c"/>
        <path d="m5172.7 1054.4c-78.6-60.8-161.9-117.1-249.4-169.1-8.6-5.2-17.3-10.3-26-15.3-139.7-81.1-289.5-151.4-446.9-211-16.4-6.3-33-12.4-49.6-18.4-12.7-4.6-25.4-9.1-38.2-13.5 0.8-0.4 1.5-0.9 2.3-1.3-2 0-3.9 0-5.8 0.1-0.1 0-0.3-0.1-0.5-0.2-14.8-5.1-29.7-10.1-44.6-15.1l1.5 43.1 2.6 33.2 15.7 203.1 12.1 155.4 7.6 97.5 9.3 120.8 12.8 202.6c7.2 47.6 57.8 78.6 98.5 96.1 27.9 12 51.2 17.7 52.9 18.1 0.1 0 0.1 0 0.1 0 0.7-3.1 32.7-147.2 187.4-15.9l1.6-0.4 114.8-26c32.1-7.3 60.4-25.9 80-52.3 4.5-6.1 17.1-24.4 34.8-51.2 53.5-80.8 154.3-239.6 227-380.3" class="j"/>
        <path d="m4527.1 1580.4c0 0-388 113.8-435.3 171.4-47.3 57.7-337.3 418-337.3 418l-229.6-157.1 349.5-581.4c175.7-187.6 582.7-333.8 602.2-328.3 19.6 5.5 50.5 477.4 50.5 477.4" class="j"/>
        <path d="m3524.9 2012.7-246 163.7c-12.3 8.2-10.9 26.7 2.6 32.9 53.6 24.5 147.7 46.1 171.4 43.6 32-3.4 161.1-34.1 161.1-34.1l-11.8 57.8c-3 14.7 6 29.1 20.5 32.9v0c20.1 5.3 41.4-2.8 52.9-20.2l79-119.4-229.6-157.1" class="h"/>
        <path d="m4807 1786.5c0 0 41.3-14.6 42.5 11.5 0.7 14.8-21.8 19.3-21.8 19.3 0 0 74.4 32.5 91.1-5 16.7-37.5-46.7-81.5-111.7-25.8" class="i"/>
        <path d="m4785.4 1316.3c-8.2 0-14.9 6.6-15 14.8-1.8 125.2 51.4 162.6 53.7 164.1 6.9 4.6 16.2 2.8 20.8-4.1 4.6-6.8 2.8-16-3.9-20.7-1.1-0.8-42.2-32.6-40.6-138.8 0.1-8.3-6.5-15.1-14.8-15.2-0.1 0-0.2 0-0.2 0" class="k"/>
        <path d="m4923.3 885.3c-8.6-5.2-17.3-10.3-26-15.3-59 140.1-125.2 298.1-125.2 402 0 8.2 6.7 15 15 15 8.3 0 15-6.8 15-15 0-96.9 63.7-250.1 121.2-386.7" class="k"/>


        <path d="m2995.1 128.5c-4.3-4.4-8-9.3-11.1-14.5l-4.6 2.4c-0.7 3-3.5 5-6.6 4.7-3.3-0.4-5.7-3.4-5.3-6.7 0.4-3.3 3.4-5.7 6.7-5.3 0.7 0.1 1.3 0.3 1.8 0.5l4.5-2.3c-2.5-5.5-4.3-11.4-5.4-17.4l7.5-1.3c2.3 13.1 8.5 25.1 17.9 34.7l-5.4 5.3" fill="url(#pattern140)"/>
        <path d="m3050 151.5c-1.7 0-3.4-0.1-5.1-0.2l-0.7 6.3c1.9 1.5 3 3.9 2.7 6.4-0.5 3.9-4 6.7-7.9 6.3-3.9-0.5-6.7-4-6.3-8 0.3-2.5 1.9-4.6 4-5.6l0.7-6.2c-7.1-1.2-14-3.3-20.6-6.5l3.3-6.8c9.3 4.5 19.4 6.7 30 6.7 5 0 9.9-0.5 14.8-1.6l1.6 7.4c-5.3 1.2-10.8 1.7-16.3 1.7" fill="url(#pattern156)"/>
        <path d="m3116 126c3.3 0.4 5.7 3.4 5.3 6.7-0.4 3.3-3.4 5.7-6.7 5.3-3.1-0.4-5.3-3-5.3-6.1l-4.2-3.6c-4.2 4.3-8.9 8.1-14.1 11.4l-4-6.4c11.4-7.2 20.2-17.3 25.6-29.2l6.9 3.1c-2.5 5.5-5.7 10.7-9.4 15.4l4 3.5c0.6-0.1 1.3-0.1 1.9-0.1" fill="url(#pattern172)"/>
        <path d="m3044.5 49.4c-3.9-0.2-7.7-0.3-11.6-0.3-8.8 0-17.3 0.6-24.8 1.8-3.9 0.6-8.5 1.5-12.7 2.9 10.5-18.6 30.7-31.2 53.9-31.2 28.6 0 52.6 19.2 59.5 45-6.8-4.5-15-8.2-24.6-11.2-11.8-3.7-25.5-6.1-39.7-6.9" fill="url(#pattern188)"/>
        <path d="m3075.7 80.3c-7.5 0-13.6 6.1-13.6 13.6 0 7.5 6.1 13.6 13.6 13.6 7.5 0 13.6-6.1 13.6-13.6 0-7.5-6.1-13.6-13.6-13.6zm-47.4-9.1c-10.2 0-18.5 8.3-18.5 18.5 0 10.2 8.3 18.5 18.5 18.5 10.2 0 18.5-8.3 18.5-18.5 0-10.2-8.3-18.5-18.5-18.5zm21.6 65.2c-33.5 0-60.8-26.7-60.8-59.4 0-4.3 0.5-8.5 1.4-12.6 6.7-4.8 27.1-8.9 53.5-7.3 28.8 1.7 53 9.6 66.7 21.6-0.1 1.9-0.2 3.9-0.5 5.8-3.8 29.6-29.7 51.9-60.3 51.9" fill="url(#pattern204)"/>
        <path d="m3210 117.7c-2.9 1.2-8.1 3.1-13.8 2.4-5.5-0.7-8.4-3.4-8.4-10.1v-8.7H3210V84.2h-22.3V29.6H3168.4V84.2H3155v17.2h13.4v8.9c0 16.8 9 27.8 25.7 27.8 6.4 0 11.6-1.2 15.9-3.1V117.7" fill="url(#pattern220)"/>
        <path d="m3257 84.4c-1.8 0.3-3.6 0.5-5.3 0.5-8.9 0-15.1-5.5-15.1-16.1v-39.1h-19.3v71.7h18.7v-7.9c4.5 6.7 11.4 9.8 20.2 9.8 4.1 0 8.5-1.3 10.9-3.4l-10.2-15.5" fill="url(#pattern236)"/>
        <path d="m3282.5 72.2h31.8c-1.8 9.2-7.3 14.4-15.6 14.4-9.1 0-14.4-5.5-16.1-14.4zm51.2-6.7c0-2.2-0.1-4.9-0.4-6.5h-50.8c2.1-10.4 9.3-14.9 18.4-14.9 6.2 0 13 2.5 18.1 6.9l11.3-12.4c-8.1-7.5-18.5-10.9-30.6-10.9-22 0-37.2 14.9-37.2 37.5 0 22.6 14.8 38 36.3 38 20.7 0 34.8-15.3 34.9-37.7" fill="url(#pattern252)"/>
        <path d="m3359.1 72.2h31.8c-1.8 9.2-7.3 14.4-15.6 14.4-9.1 0-14.4-5.5-16.1-14.4zm51.1-6.7c0-2.2-0.1-4.9-0.4-6.5h-50.8c2.1-10.4 9.3-14.9 18.4-14.9 6.2 0 13 2.5 18.1 6.9l11.3-12.4c-8.1-7.5-18.5-10.9-30.6-10.9-22 0-37.2 14.9-37.2 37.5 0 22.6 14.8 38 36.3 38 20.7 0 34.8-15.3 34.9-37.7" fill="url(#pattern268)"/>
        <path d="m3436.9 65.5c0-11.3 7.5-19.8 18.4-19.8 11.4 0 18.5 8.8 18.5 19.8 0 10.9-7.1 19.8-18.5 19.8-11 0-18.4-8.4-18.4-19.8zm56.8 0c0-21.5-14.9-37.7-34.7-37.7-9.6 0-16.4 3.8-21.1 9.3V0h-19.2v101.3h18.9v-7.9c4.7 5.9 11.6 9.8 21.4 9.8 19.8 0 34.8-16.2 34.8-37.7" fill="url(#pattern284)"/>
        <path d="m3522.1 29.6h-19.3v71.7h19.3zm2.6 95.2c0-7-5.4-12.3-12.4-12.3-6.9 0-12.3 5.3-12.3 12.3 0 7 5.3 12.4 12.3 12.4 7 0 12.4-5.5 12.4-12.4" fill="url(#pattern300)"/>
        <path d="m3554.4 75.8 27 25.5h23.7l-34.8-33.7 35-38h-23.8l-27.2 29V29.6h-19.3V136.2h19.3V75.8" fill="url(#pattern316)"/>
        <path d="m2238.2 49.4v32.1c-3.9 6.1-12.4 11.4-21.2 11.4-14.2 0-22.7-11.7-22.7-27.4 0-15.7 8.5-27.2 22.7-27.2 8.8 0 17.3 5 21.2 11.1zm0-19.2V40.8C2232.9 33.6 2224.2 28.5 2214.3 28.5c-18.5 0-31.5 14.1-31.5 37.1 0 22.6 12.9 37.2 31.5 37.2 9.5 0 18.2-4.7 23.9-12.5v37.7h11V30.3h-11" fill="url(#pattern332)"/>
        <path d="m2298.1 93.7c-15.1 0-22.6-12.7-23.1-23.6h46.4c-0.1 10.6-7.2 23.6-23.3 23.6zm-34.7-28c0 20.5 14.6 37.1 34.9 37.1 21.4 0 34-16.7 34-37.9v-2.8h-57.3c0.9-13.3 10.3-24.5 25.5-24.5 8.1 0 16.3 3.2 21.8 8.9l5.3-7.2C2320.5 32.3 2311 28.5 2299.4 28.5c-20.9 0-36 15.1-36 37.2" fill="url(#pattern348)"/>
        <path d="m2340.1 39.6 5.7 7.9c4.7-5.4 13.6-10.1 23.3-10.1 10.8 0 16.7 5.1 16.7 12.2 0 17.1-43.8 6.6-43.8 32.8 0 11 9.5 20.4 26.4 20.4 12 0 20.5-4.5 26.2-10.3l-5.1-7.6c-4.2 5.1-12 8.9-21.1 8.9-9.7 0-15.7-4.8-15.7-11.1 0-15.5 43.8-5.3 43.8-32.8 0-11.9-9.5-21.4-27.8-21.4-11.6 0-21.4 3.5-28.6 11.1" fill="url(#pattern364)"/>
        <path d="m2410.7 30.3v70.8h11V30.3Zm-1.9 88.2c0 4.1 3.4 7.5 7.3 7.5 4.1 0 7.5-3.4 7.5-7.5 0-4.1-3.4-7.3-7.5-7.3-3.9 0-7.3 3.2-7.3 7.3" fill="url(#pattern380)"/>
        <path d="m2491.1 50.6v30.9c-3.8 6.1-12.3 11.4-21.1 11.4-14.2 0-22.7-11.3-22.7-26.9 0-15.5 8.5-26.9 22.7-26.9 8.8 0 17.3 5.4 21.1 11.6zm-51.3-38.5 5.6 8.2c5.9-7 12.9-9.7 23-9.7 11.7 0 22.7 5.7 22.7 21.2v10.1c-5.1-7.2-13.8-12.6-23.7-12.6-18.4 0-31.5 13.8-31.5 36.6 0 22.7 12.9 36.8 31.5 36.8 9.5 0 18-4.7 23.7-12.5v10.7h11V32.3c0-23.4-16.4-30.8-33.7-30.8-12 0-20.2 2.3-28.6 10.6" fill="url(#pattern396)"/>
        <path d="m2568.2 30.3v46.3c0 12.4-6.3 16.4-15.8 16.4-8.6 0-16.8-5.3-20.9-11V30.3h-11v70.8h11V90.8c5 5.9 14.7 12 25.2 12 14.8 0 22.6-7.5 22.6-22.9V30.3h-11" fill="url(#pattern412)"/>
        <path d="m2628.1 93.7c-15.1 0-22.6-12.7-23.1-23.6h46.4c-0.1 10.6-7.2 23.6-23.3 23.6zm-34.7-28c0 20.5 14.7 37.1 34.9 37.1 21.4 0 34-16.7 34-37.9v-2.8h-57.3c0.9-13.3 10.3-24.5 25.5-24.5 8.1 0 16.3 3.2 21.8 8.9l5.3-7.2C2650.5 32.3 2641 28.5 2629.4 28.5c-20.9 0-36 15.1-36 37.2" fill="url(#pattern428)"/>
        <path d="m2727.5 49.4v32.1c-4 6.1-12.4 11.4-21.2 11.4-14.2 0-22.7-11.7-22.7-27.4 0-15.7 8.5-27.2 22.7-27.2 8.8 0 17.3 5 21.2 11.1zm0-19.2V40.8C2722.3 33.6 2713.6 28.5 2703.7 28.5c-18.5 0-31.5 14.1-31.5 37.1 0 22.6 12.9 37.2 31.5 37.2 9.5 0 18.2-4.7 23.9-12.5v37.7h11V30.3h-11" fill="url(#pattern444)"/>
        <path d="m2823 38.3c14.4 0 22.9 11.6 22.9 27.2 0 15.7-8.5 27.4-22.9 27.4-8.6 0-17.3-5.3-21.1-11.4V49.4c3.8-6.2 12.5-11.1 21.1-11.1zm-32.1-8.1v97.7h11V90.3c5.7 7.8 14.2 12.5 23.9 12.5 18.5 0 31.5-14.6 31.5-37.2 0-23-13-37.1-31.5-37.1-10 0-18.6 5.1-23.9 12.3V30.3h-11" fill="url(#pattern460)"/>
        <path d="m2869.3 12.5c1.6-0.7 4.3-1.2 6-1.2 4.8 0 8.1 1.6 10.6 7.5l4.7 10.7-29.6 71.5h11.9L2896.4 43l23.4 58h12l-35.4-85.1c-4.2-10.2-11.4-14.2-20.8-14.4-2.3 0-6 0.4-8.1 1l1.8 10" fill="url(#pattern476)"/>
    </g>
</svg>
